<svg id="Layer_1" data-name="Layer 1" xmlns="http://www.w3.org/2000/svg" viewBox="0 0 712 712">
            
            
            
  <defs>
    <style>
      .cls-1 {
        fill: #fff;
      }

      .cls-2 {
        fill: #ffce6a;
      }
    </style>
  </defs>
  
  <ellipse class="cls-2" cx="355.4" cy="298.32" rx="217.31" ry="202.6"/>
  <path d="M161.85,287.93c1.76-10.63,16.62-15.61,25.35-9.37,12.95,9.25,4.89,32.16,7.66,45.83.96,2.14,10.5,5.4,13.17,6.28,5.76,1.9,10.21,4.14,12.19-3.82,1.38-23.93-1.89-50-.04-73.67,1.72-22,28.05-23.78,33.37-3.45l.3,99.73c.69,3.91,6.19,4.6,9.59,5.7,4.17,1.34,12.96,5.11,15.29-.36l.6-162.64c4.1-19.23,29.83-19.16,33.27.61l.07,184.7c.59,2.7.84,5.49,3.59,6.83,1.69.82,14.49,4.56,16.21,4.69,6.04.46,6.94-4.53,7.26-9.33,1.27-18.96-.66-38.71-.77-57.64-.38-66.94.84-133.85.73-200.78,5.19-18.47,29.92-16.85,32.43,2.99,3.4,26.87-2.15,59.96.25,87.29-.25,8.39,0,16.78,0,25,.06,49.68-.38,99.44.28,149.07.78,2.53,3.72,3.52,6.19,3.4,2.01-.1,17.29-4.66,18.29-5.73.63-.68,1.43-2.7,1.56-3.65l.04-186.81c3.19-18.33,26.74-20.67,32.59-2.72.58,22.17-.89,44.52.79,66.59,2.04,30.64-2.82,65.04-.07,95.23.81,8.87,8.68,5.51,14.46,3.97,3.73-.99,10.86-2.27,11.67-6.39l.3-99.73c3.1-17.96,28.57-18.45,32.48-.52l.15,77.65c.02,2.62,2.72,5.63,5.29,5.88,2.25.22,19.31-6.01,20.08-7.63,1.72-11.13-1.2-24.77.51-35.61,1.89-11.99,17.04-17.82,26.58-10.24,8.27,6.57,5.87,22.63,5.22,31.95l25.43-8.96c1.41-.42,1,.73.98,1.68-.12,5.73-1.89,14.78-3.01,20.62-22.3,116.7-129.99,195.54-248.71,178.26-100.88-14.69-178.98-99.25-187.32-200.63l25.7,9.03c.83-7.04-1.11-16.56,0-23.27Z" data-index="1" style="visibility: visible;" class=""/>
  <polygon points="510.9 548.07 547.37 600.16 547.37 548.07 567.52 548.07 567.52 633.51 549.11 633.51 511.95 580.71 511.95 634.2 493.54 634.2 492.5 633.16 492.5 548.07 510.9 548.07" class=""/>
  <path d="M181.16,546.19c60.52-6.24,66.07,85.28,9.51,89.39-59.47,4.33-65.77-83.59-9.51-89.39ZM181.83,564.92c-29.03,4.21-27.85,56.87,10.06,51.74,28.09-3.81,24.85-56.8-10.06-51.74Z" data-index="2" style="visibility: visible; opacity: 1;" class=""/>
  <path d="M431.22,546.19c31.27-3.21,51.5,19.6,48.76,50.15-4.93,54.87-92.12,53.21-86.81-11.09,1.65-20.01,18.04-37,38.05-39.05ZM433.28,564.22c-28.08,3.81-27.01,48.35-1.95,52.3,39.3,6.2,39.35-57.37,1.95-52.3Z" data-index="3" style="visibility: visible; opacity: 1;" class=""/>
  <path d="M282.37,548.07c7.99.9,16.91,6.02,21.05,12.99,7.72,13.02,4.1,34.69-11.64,39.83l-.04.99,18.07,31.62h-20.49l-17.71-29.87h-10.42v30.56h-18.41l-1.04-1.04v-85.09h40.64ZM261.18,586.97h14.93c1.55,0,7.07-2.31,8.34-3.46,5.04-4.54,3.87-13.5-1.95-16.83-.76-.43-4.48-1.94-5.01-1.94h-16.32v22.23Z" data-index="4" style="visibility: visible; opacity: 1;" class=""/>
  <path d="M382.05,572.38h-20.14c.24-4.31-2.14-6.77-5.89-8.35-12.92-5.47-25.49,8.51-9.86,15.42,11.09,4.91,27.64,4.97,34.53,16.88,7.66,13.24.23,31.04-13.54,36.51-21.27,8.44-45.99-2.66-50.38-25.72h21.53c.6,9.28,10.72,12.74,18.62,9.94,5.35-1.89,8.12-6.99,4.62-12s-23.01-7.48-29.96-11.02c-19.95-10.16-15.9-38.09,3.95-45.61s45.3,1.02,46.53,23.96Z" data-index="5" style="visibility: visible; opacity: 1;" class=""/>
  <path d="M642.19,633.51l-7.06-16.56-34.35.3-6.13,16.63-18.79.32,31.6-85.44,20.88-.74,32.96,85.48h-19.1ZM629.34,600.86l-10.43-29.17-11.11,29.17h21.53Z" data-index="6" style="visibility: visible; opacity: 1;" class=""/>
  <path d="M136.15,575.85h-21.88c-9.97-18.44-36.46-13.14-40.45,6.79-5.98,29.89,21.94,47.02,41.84,23.08h19.45c.09,0,1.7-1.35,1.72.34.01.86-6.84,12.67-8.03,14.19-19.87,25.3-63.62,18-73.03-12.99s9.92-64.39,45.29-61.27c15.79,1.39,30.24,15.39,35.09,29.86Z" data-index="7" style="visibility: visible; opacity: 1;" class=""/>
  
  <path class="cls-1" d="M433.28,564.22c37.4-5.07,37.35,58.5-1.95,52.3-25.06-3.95-26.13-48.49,1.95-52.3Z" data-index="9" style="visibility: hidden; opacity: 1; fill: rgb(121, 40, 202);"/>
  
  <polygon class="cls-1" points="629.34 600.86 607.8 600.86 618.91 571.68 629.34 600.86" style="fill: none;"/>
</svg>