<svg id="Layer_1" data-name="Layer 1" xmlns="http://www.w3.org/2000/svg" viewBox="0 0 545.65 548.47">
            
            
  <defs>
    <style>
      .cls-1 {
        fill: #fff;
      }
    </style>
  </defs>
  
  <path d="M124.03,221.25c1.35-8.15,12.73-11.97,19.43-7.19,9.92,7.09,3.75,24.66,5.87,35.13.74,1.64,8.05,4.14,10.1,4.81,4.42,1.46,7.83,3.17,9.34-2.93,1.06-18.34-1.45-38.33-.03-56.48,1.32-16.86,21.5-18.23,25.57-2.64l.23,76.98c.53,3,4.74,3.53,7.35,4.37,3.19,1.03,9.93,3.92,11.72-.28l.46-125.74c3.14-14.74,22.86-14.69,25.5.47l.06,142.65c.45,2.07.64,4.21,2.75,5.23,1.29.63,11.11,3.49,12.42,3.59,4.63.35,5.32-3.48,5.56-7.15.98-14.71-.51-30.03-.59-44.72-.29-51.5.64-102.96.56-154.45,3.97-14.16,22.93-12.91,24.86,2.29,2.63,20.76-1.66,46.33.19,67.44-.19,6.43,0,12.86,0,19.17.05,38.26-.29,76.58.21,114.8.6,1.94,2.85,2.7,4.74,2.61,1.54-.08,13.25-3.57,14.01-4.39.48-.52,1.1-2.07,1.2-2.8l.03-144.27c2.44-14.05,20.49-15.84,24.98-2.08.44,17.18-.68,34.48.6,51.58,1.57,23.66-2.18,50.22-.05,73.54.62,6.8,6.65,4.23,11.08,3.05,2.86-.76,8.32-1.74,8.94-4.9l.23-76.98c2.38-13.77,21.89-14.14,24.89-.4l.12,59.52c.01,2.01,2.09,4.32,4.05,4.51,1.72.17,14.8-4.61,15.39-5.85,1.32-8.53-.92-18.99.39-27.3,1.45-9.19,13.06-13.66,20.37-7.85,6.34,5.04,4.5,17.35,4,24.49l19.49-6.87c1.08-.32.77.56.75,1.29-.09,4.42-1.46,11.29-2.31,15.81-16.79,89.64-99.3,151.01-190.6,137.72-77.12-11.23-137.54-77.24-143.55-154.87l19.69,6.92c.63-5.4-.85-12.69,0-17.84Z" data-index="1" style="visibility: visible; opacity: 1;" class=""/>
  <polygon points="391.54 421.74 419.48 461.67 419.48 421.74 434.92 421.74 434.92 487.77 420.81 487.77 392.33 446.76 392.33 488.3 378.23 488.3 377.43 487.5 377.43 421.74 391.54 421.74" class=""/>
  <path d="M138.83,420.3c46.52-4.8,50.62,65.91,7.29,69.06-45.66,3.32-50.43-64.61-7.29-69.06ZM139.35,434.66c-22.28,3.23-21.34,44.13,7.71,40.19,21.31-2.89,19.31-44.11-7.71-40.19Z" data-index="2" style="visibility: visible; opacity: 1;" class=""/>
  <path d="M330.47,420.3c23.96-2.46,39.48,15.02,37.37,38.44-3.89,43.07-70.64,41.39-66.53-8.5,1.27-15.34,13.82-28.36,29.16-29.94ZM332.05,434.12c-22.09,3-20.62,38.84-.13,40.86,28.8,2.84,28.37-44.69.13-40.86Z" data-index="3" style="visibility: visible; opacity: 1;" class=""/>
  <path d="M216.4,421.74c2,.23,6.59,1.77,8.45,2.73,14.7,7.55,14.28,31.86-1.3,38.04l13.87,25.26h-15.7c-4.27-7.02-9.07-13.89-12.96-21.13-.39-.73-.69-1.45-.62-2.3h-7.99v23.96h-14.11l-.8-.8v-65.76h31.14ZM200.16,451.56h11.45c1.19,0,5.42-1.77,6.39-2.66,3.86-3.48,2.96-10.35-1.49-12.9-.58-.33-3.43-1.48-3.84-1.48h-12.51v17.04Z" data-index="4" style="visibility: visible; opacity: 1;" class=""/>
  <path d="M492.15,487.77l-5.41-12.69-26.33.23-4.7,12.75-14.4.25,24.22-66.03,16-.56,25.26,66.06h-14.64ZM482.3,462.21l-7.99-22.36-8.51,22.36h16.5Z" data-index="5" style="visibility: visible; opacity: 1;" class=""/>
  <path d="M292.79,440.37h-15.44c.18-3.31-1.64-5.19-4.51-6.4-9.9-4.19-19.53,6.52-7.56,11.82,10.05,4.45,26.74,4.34,28.52,18.87,3.97,32.44-46.97,32.1-51.05,2.87h16.5c.24,13.13,25.62,9.18,17.49-2.32-2.6-3.67-17.44-5.58-22.64-8.24-15.29-7.8-12.19-29.2,3.03-34.97,14.86-5.63,34.71.78,35.66,18.36Z" data-index="6" style="visibility: visible; opacity: 1;" class=""/>
  <path d="M104.34,443.04h-16.77c-7.64-14.13-27.94-10.07-31,5.2-4.6,23,16.35,36.88,32.06,18.23h14.91c.07,0,1.3-1.03,1.32.26,0,.66-5.24,9.71-6.15,10.88-7.74,9.86-21.08,13.66-33.14,10.88-37.52-8.67-31.53-72.17,11.88-68.33,12.1,1.07,23.17,11.8,26.89,22.89Z" data-index="7" style="visibility: visible; opacity: 1;" class=""/>
  
  <path class="cls-1" d="M332.05,434.12c28.23-3.83,28.67,43.69-.13,40.86-20.49-2.02-21.96-37.86.13-40.86Z" data-index="9" style="visibility: hidden; opacity: 1; fill: rgb(121, 40, 202);"/>
  
  <polygon class="cls-1" points="482.3 462.21 465.8 462.21 474.31 439.84 482.3 462.21" style="fill: none;"/>
</svg>