<svg id="Layer_1" data-name="Layer 1" xmlns="http://www.w3.org/2000/svg" viewBox="0 0 816.47 316.15">
            
            
  <defs>
    <style>
      .cls-1 {
        fill: #fff;
      }

      .cls-2 {
        fill: #ffce6a;
      }
    </style>
  </defs>
  <g>
    <ellipse class="cls-2" cx="161.49" cy="156.43" rx="160.06" ry="156.43"/>
    <path d="M18.93,148.41c1.3-8.21,12.24-12.06,18.67-7.24,9.54,7.14,3.6,24.83,5.64,35.39.71,1.65,7.74,4.17,9.7,4.85,4.25,1.47,7.52,3.19,8.98-2.95,1.02-18.48-1.39-38.6-.03-56.88,1.27-16.99,20.66-18.36,24.58-2.66l.22,77c.5,3.02,4.56,3.56,7.06,4.4,3.07,1.04,9.55,3.95,11.26-.28l.44-125.58c3.02-14.85,21.97-14.8,24.5.47l.05,142.61c.43,2.08.62,4.24,2.64,5.27,1.24.63,10.67,3.52,11.94,3.62,4.45.35,5.11-3.5,5.35-7.21.93-14.64-.49-29.89-.57-44.51-.28-51.69.62-103.35.53-155.03,3.82-14.26,22.04-13.01,23.89,2.31,2.51,20.75-1.58,46.3.18,67.4-.18,6.48,0,12.95,0,19.3.05,38.36-.28,76.78.21,115.1.58,1.95,2.74,2.72,4.56,2.62,1.48-.08,12.73-3.6,13.47-4.43.47-.52,1.05-2.09,1.15-2.82l.03-144.24c2.35-14.15,19.7-15.96,24-2.1.42,17.12-.65,34.37.58,51.42,1.5,23.65-2.08,50.22-.05,73.53.6,6.85,6.39,4.26,10.65,3.07,2.75-.77,8-1.76,8.6-4.93l.22-77c2.28-13.87,21.04-14.24,23.92-.41l.11,59.95c.01,2.02,2.01,4.35,3.89,4.54,1.66.17,14.22-4.64,14.79-5.89,1.27-8.6-.88-19.12.38-27.49,1.39-9.25,12.55-13.76,19.57-7.91,6.09,5.07,4.33,17.47,3.84,24.67l18.73-6.92c1.04-.32.74.56.72,1.3-.08,4.42-1.39,11.41-2.22,15.92-16.42,90.1-95.74,150.99-183.19,137.64C63.66,302.98,6.14,237.68,0,159.4l18.93,6.97c.61-5.43-.82-12.78,0-17.97Z" data-index="0" style="visibility: visible; opacity: 1;" class=""/>
  </g>
  <g>
    <polygon points="703.68 164.1 731.03 203.17 731.03 164.1 746.14 164.1 746.14 228.18 732.33 228.18 704.46 188.58 704.46 228.7 690.65 228.7 689.87 227.92 689.87 164.1 703.68 164.1" class=""/>
    <path d="M456.35,162.68c45.4-4.68,49.56,63.96,7.13,67.05-44.61,3.25-49.33-62.7-7.13-67.05ZM456.86,176.73c-21.78,3.16-20.89,42.66,7.54,38.8,21.07-2.85,18.64-42.6-7.54-38.8Z" data-index="1" style="visibility: visible; opacity: 1;" class=""/>
    <path d="M643.91,162.68c23.46-2.41,38.63,14.7,36.57,37.61-3.7,41.16-69.09,39.91-65.11-8.32,1.24-15.01,13.53-27.75,28.54-29.29ZM645.46,176.21c-21.06,2.86-20.26,36.26-1.46,39.23,29.48,4.65,29.51-43.03,1.46-39.23Z" data-index="2" style="visibility: visible; opacity: 1;" class=""/>
    <path d="M532.27,164.1c6,.68,12.69,4.51,15.79,9.74,5.79,9.77,3.07,26.02-8.73,29.88l-.03.74,13.56,23.72h-15.37l-13.29-22.4h-7.82v22.92h-13.81l-.78-.78v-63.82h30.48ZM516.38,193.27h11.2c1.16,0,5.3-1.73,6.26-2.6,3.78-3.41,2.9-10.13-1.46-12.62-.57-.32-3.36-1.45-3.76-1.45h-12.24v16.67Z" data-index="3" style="visibility: visible; opacity: 1;" class=""/>
    <path d="M607.03,182.33h-15.11c.18-3.23-1.61-5.07-4.42-6.26-9.69-4.1-19.12,6.38-7.4,11.57,8.32,3.68,20.73,3.73,25.9,12.66,5.75,9.93.17,23.28-10.16,27.38-15.95,6.33-34.49-2-37.79-19.29h16.15c.45,6.96,8.04,9.55,13.97,7.46,4.02-1.42,6.09-5.24,3.46-9s-17.26-5.61-22.47-8.27c-14.96-7.62-11.92-28.57,2.96-34.21,14.54-5.51,33.98.76,34.9,17.97Z" data-index="4" style="visibility: visible; opacity: 1;" class=""/>
    <path d="M802.15,228.18l-5.29-12.42-25.76.23-4.6,12.47-14.09.24,23.7-64.08,15.66-.55,24.72,64.12h-14.33ZM792.51,203.69l-7.82-21.88-8.33,21.88h16.15Z" data-index="5" style="visibility: visible; opacity: 1;" class=""/>
    <path d="M422.6,184.94h-16.41c-7.48-13.83-27.35-9.85-30.34,5.09-4.48,22.42,16.46,35.27,31.38,17.31h14.59c.07,0,1.27-1.01,1.29.26,0,.65-5.13,9.5-6.02,10.64-14.9,18.97-47.72,13.5-54.78-9.74-7.31-24.08,7.44-48.3,33.97-45.95,11.85,1.05,22.68,11.55,26.32,22.39Z" data-index="6" style="visibility: visible;" class=""/>
    
    <path class="cls-1" d="M645.46,176.21c28.05-3.8,28.01,43.87-1.46,39.23-18.8-2.96-19.6-36.37,1.46-39.23Z" data-index="8" style="visibility: hidden; opacity: 1; fill: rgb(121, 40, 202);"/>
    <path class="cls-1" d="M516.38,193.27v-16.67h12.24c.4,0,3.19,1.13,3.76,1.45,4.36,2.49,5.24,9.21,1.46,12.62-.96.86-5.1,2.6-6.26,2.6h-11.2Z" data-index="9" style="visibility: visible; fill: none;"/>
    <polygon class="cls-1" points="792.51 203.69 776.36 203.69 784.69 181.81 792.51 203.69" style="fill: none;"/>
  </g>
</svg>