<svg id="Layer_1" data-name="Layer 1" xmlns="http://www.w3.org/2000/svg" viewBox="0 0 831.19 305.83">
            
            
            
            
            
            
            
            
            
            
            
            
            
            
            
            
            
            
  <defs>
    <style>
      .cls-1 {
        fill: #fff;
      }
    </style>
  </defs>
  <path d="M19.69,138.24c1.35-8.15,12.73-11.97,19.43-7.19,9.92,7.09,3.75,24.66,5.87,35.13.74,1.64,8.05,4.14,10.1,4.81,4.42,1.46,7.83,3.17,9.34-2.93,1.06-18.34-1.45-38.33-.03-56.48,1.32-16.86,21.5-18.23,25.57-2.64l.23,76.98c.53,3,4.74,3.53,7.35,4.37,3.19,1.03,9.93,3.92,11.72-.28l.46-125.74c3.14-14.74,22.86-14.69,25.5.47l.06,142.65c.45,2.07.64,4.21,2.75,5.23,1.29.63,11.11,3.49,12.42,3.59,4.63.35,5.32-3.48,5.56-7.15.98-14.71-.51-30.03-.59-44.72-.29-51.5.64-102.96.56-154.45,3.97-14.16,22.93-12.91,24.86,2.29,2.63,20.76-1.66,46.33.19,67.44-.19,6.43,0,12.86,0,19.17.05,38.26-.29,76.58.21,114.8.6,1.94,2.85,2.7,4.74,2.61,1.54-.08,13.25-3.57,14.01-4.39.48-.52,1.1-2.07,1.2-2.8l.03-144.27c2.44-14.05,20.49-15.84,24.98-2.08.44,17.18-.68,34.48.6,51.58,1.57,23.66-2.18,50.22-.05,73.54.62,6.8,6.65,4.23,11.08,3.05,2.86-.76,8.32-1.74,8.94-4.9l.23-76.98c2.38-13.77,21.89-14.14,24.89-.4l.12,59.52c.01,2.01,2.09,4.32,4.05,4.51,1.72.17,14.8-4.61,15.39-5.85,1.32-8.53-.92-18.99.39-27.3,1.45-9.19,13.06-13.66,20.37-7.85,6.34,5.04,4.5,17.35,4,24.49l19.49-6.87c1.08-.32.77.56.75,1.29-.09,4.42-1.46,11.29-2.31,15.81-16.79,89.64-99.3,151.01-190.6,137.72C66.43,292.79,6.01,226.79,0,149.16l19.69,6.92c.63-5.4-.85-12.69,0-17.84Z" data-index="0" style="visibility: visible;" class=""/>
  
  
  
  
  
  
  
  
  <path class="cls-1" d="M656.46,167.06c28.23-3.83,28.67,43.69-.13,40.86-20.49-2.02-21.96-37.86.13-40.86Z" data-index="8" style="visibility: hidden; opacity: 1; fill: rgb(121, 40, 202);"/>
  
  <polygon class="cls-1" points="806.71 195.14 790.2 195.14 798.72 172.78 806.71 195.14" stroke="none" style="fill: none;"/>
</svg>