<?xml version="1.0" encoding="UTF-8"?>
<svg id="Layer_1" data-name="Layer 1" xmlns="http://www.w3.org/2000/svg" viewBox="0 0 712 712">
  <defs>
    <style>
      .cls-1 {
        fill: #ff8400;
      }
    </style>
  </defs>
  <path class="cls-1" d="M712,0v712H0V0h712ZM161.85,287.93c-1.11,6.71.83,16.23,0,23.27l-25.7-9.03c8.33,101.38,86.43,185.95,187.32,200.63,118.72,17.28,226.41-61.57,248.71-178.26,1.12-5.84,2.89-14.89,3.01-20.62.02-.95.43-2.1-.98-1.68l-25.43,8.96c.66-9.33,3.05-25.38-5.22-31.95-9.53-7.58-24.68-1.75-26.58,10.24-1.71,10.84,1.21,24.48-.51,35.61-.78,1.62-17.84,7.86-20.08,7.63-2.56-.25-5.27-3.26-5.29-5.88l-.15-77.65c-3.91-17.92-29.38-17.44-32.48.52l-.3,99.73c-.81,4.12-7.94,5.4-11.67,6.39-5.78,1.54-13.65,4.9-14.46-3.97-2.76-30.19,2.1-64.6.07-95.23-1.67-22.07-.21-44.42-.79-66.59-5.85-17.95-29.4-15.61-32.59,2.72l-.04,186.81c-.13.95-.93,2.97-1.56,3.65-1,1.07-16.28,5.63-18.29,5.73-2.47.12-5.41-.87-6.19-3.4-.66-49.63-.22-99.39-.28-149.07-.01-8.23-.25-16.61,0-25-2.4-27.33,3.16-60.42-.25-87.29-2.51-19.84-27.25-21.46-32.43-2.99.11,66.94-1.11,133.84-.73,200.78.11,18.93,2.04,38.69.77,57.64-.32,4.8-1.22,9.79-7.26,9.33-1.71-.13-14.52-3.87-16.21-4.69-2.75-1.34-3-4.13-3.59-6.83l-.07-184.7c-3.44-19.78-29.17-19.84-33.27-.61l-.6,162.64c-2.33,5.47-11.12,1.7-15.29.36-3.4-1.09-8.9-1.79-9.59-5.7l-.3-99.73c-5.32-20.33-31.65-18.55-33.37,3.45-1.85,23.67,1.42,49.74.04,73.67-1.97,7.96-6.42,5.72-12.19,3.82-2.67-.88-12.21-4.13-13.17-6.28-2.77-13.67,5.29-36.58-7.66-45.83-8.74-6.24-23.59-1.25-25.35,9.37ZM136.15,575.85c-4.85-14.46-19.3-28.46-35.09-29.86-35.37-3.12-55.04,29.17-45.29,61.27,9.41,30.99,53.16,38.29,73.03,12.99,1.19-1.52,8.04-13.32,8.03-14.19-.02-1.69-1.63-.34-1.72-.34h-19.45c-19.89,23.94-47.82,6.81-41.84-23.08,3.99-19.92,30.47-25.22,40.45-6.79h21.88ZM181.16,546.19c-56.26,5.8-49.96,93.72,9.51,89.39s51.01-95.63-9.51-89.39ZM382.05,572.38c-1.23-22.94-27.15-31.3-46.53-23.96-19.85,7.52-23.9,35.45-3.95,45.61,6.95,3.54,26.42,5.95,29.96,11.02s.74,10.11-4.62,12c-7.9,2.79-18.02-.66-18.62-9.94h-21.53c4.4,23.06,29.12,34.17,50.38,25.72,13.77-5.47,21.2-23.27,13.54-36.51-6.89-11.9-23.43-11.97-34.53-16.88-15.63-6.91-3.05-20.89,9.86-15.42,3.75,1.59,6.13,4.04,5.89,8.35h20.14ZM431.22,546.19c-20.01,2.06-36.4,19.05-38.05,39.05-5.31,64.3,81.88,65.97,86.81,11.09,2.75-30.55-17.48-53.36-48.76-50.15ZM282.37,548.07h-40.64v85.09l1.04,1.04h18.41v-30.56h10.42l17.71,29.87h20.49l-18.07-31.62.04-.99c15.74-5.14,19.36-26.81,11.64-39.83-4.13-6.97-13.05-12.09-21.05-12.99ZM510.9,548.07h-18.41v85.09l1.04,1.04h18.41v-53.49l37.16,52.79h18.41v-85.44h-20.14v52.1l-36.47-52.1ZM642.19,633.51h19.1l-32.96-85.48-20.88.74-31.6,85.44,18.79-.32,6.13-16.63,34.35-.3,7.06,16.56Z"/>
</svg>